<?xml version="1.0" encoding="utf-8"?>

<!DOCTYPE svg PUBLIC "-//W3C//DTD SVG 1.1//EN" "http://www.w3.org/Graphics/SVG/1.1/DTD/svg11.dtd">
<!-- Uploaded to: SVG Repo, www.svgrepo.com, Generator: SVG Repo Mixer Tools -->
<svg version="1.1" id="_x32_" xmlns="http://www.w3.org/2000/svg" xmlns:xlink="http://www.w3.org/1999/xlink" 
	 width="800px" height="800px" viewBox="0 0 512 512"  xml:space="preserve">
<style type="text/css">
<![CDATA[
	.st0{fill:#000000;}
]]>
</style>
<g>
	<path class="st0" d="M512,180.219c0-21.484-17.422-38.891-38.906-38.891c-21.469,0-38.891,17.406-38.891,38.891
		c0,10.5,4.172,20,10.938,27c-26.453,54.781-77.016,73.891-116.203,56.578c-34.906-15.422-47.781-59.547-52.141-93.734
		c14.219-7.5,23.922-22.406,23.922-39.594c0-24.719-20.016-44.734-44.719-44.734c-24.719,0-44.734,20.016-44.734,44.734
		c0,17.188,9.703,32.094,23.938,39.594c-4.359,34.188-17.25,78.313-52.141,93.734C143.875,281.109,93.328,262,66.859,207.219
		c6.75-7,10.938-16.5,10.938-27c0-21.484-17.422-38.891-38.906-38.891S0,158.734,0,180.219c0,19.766,14.734,36.031,33.813,38.531
		l55.75,207.516h332.875l55.75-207.516C497.25,216.25,512,199.984,512,180.219z"/>
</g>
</svg>